<mxfile host="app.diagrams.net" agent="Mozilla/5.0 (X11; Linux x86_64) AppleWebKit/537.36 (KHTML, like Gecko) Chrome/132.0.0.0 Safari/537.36 OPR/117.0.0.0" version="26.2.14">
  <diagram name="Page-1" id="oNwOHs38qYHQ-QEW0pWb">
    <mxGraphModel dx="2042" dy="1950" grid="1" gridSize="10" guides="1" tooltips="1" connect="1" arrows="1" fold="1" page="1" pageScale="1" pageWidth="850" pageHeight="1100" math="0" shadow="0">
      <root>
        <mxCell id="0" />
        <mxCell id="1" parent="0" />
        <mxCell id="BDMdnq4w_vVdqYXEkBCO-1" value="&lt;h1 style=&quot;margin-top: 0px;&quot;&gt;&lt;span style=&quot;font-size: 19px;&quot;&gt;Choose a node&lt;/span&gt;&lt;/h1&gt;" style="text;html=1;whiteSpace=wrap;overflow=hidden;rounded=0;" parent="1" vertex="1">
          <mxGeometry x="-705" y="-920" width="140" height="40" as="geometry" />
        </mxCell>
        <mxCell id="BDMdnq4w_vVdqYXEkBCO-16" value="" style="group" parent="1" vertex="1" connectable="0">
          <mxGeometry x="-810" y="-860" width="350" height="120" as="geometry" />
        </mxCell>
        <mxCell id="BDMdnq4w_vVdqYXEkBCO-15" value="" style="rounded=1;whiteSpace=wrap;html=1;fillColor=none;" parent="BDMdnq4w_vVdqYXEkBCO-16" vertex="1">
          <mxGeometry width="350" height="120" as="geometry" />
        </mxCell>
        <mxCell id="BDMdnq4w_vVdqYXEkBCO-8" value="Start" style="ellipse;whiteSpace=wrap;html=1;aspect=fixed;" parent="BDMdnq4w_vVdqYXEkBCO-16" vertex="1">
          <mxGeometry x="20" y="60" width="40" height="40" as="geometry" />
        </mxCell>
        <mxCell id="BDMdnq4w_vVdqYXEkBCO-9" value="End" style="ellipse;whiteSpace=wrap;html=1;aspect=fixed;" parent="BDMdnq4w_vVdqYXEkBCO-16" vertex="1">
          <mxGeometry x="290" y="50" width="40" height="40" as="geometry" />
        </mxCell>
        <mxCell id="BDMdnq4w_vVdqYXEkBCO-10" value="1" style="ellipse;whiteSpace=wrap;html=1;aspect=fixed;" parent="BDMdnq4w_vVdqYXEkBCO-16" vertex="1">
          <mxGeometry x="200" y="10" width="40" height="40" as="geometry" />
        </mxCell>
        <mxCell id="BDMdnq4w_vVdqYXEkBCO-11" value="2" style="ellipse;whiteSpace=wrap;html=1;aspect=fixed;fillColor=#d80073;fontColor=#ffffff;strokeColor=#A50040;" parent="BDMdnq4w_vVdqYXEkBCO-16" vertex="1">
          <mxGeometry x="110" y="50" width="40" height="40" as="geometry" />
        </mxCell>
        <mxCell id="BDMdnq4w_vVdqYXEkBCO-12" value="" style="endArrow=classic;html=1;rounded=0;exitX=0.968;exitY=0.318;exitDx=0;exitDy=0;exitPerimeter=0;entryX=0.034;entryY=0.724;entryDx=0;entryDy=0;entryPerimeter=0;" parent="BDMdnq4w_vVdqYXEkBCO-16" source="BDMdnq4w_vVdqYXEkBCO-11" target="BDMdnq4w_vVdqYXEkBCO-10" edge="1">
          <mxGeometry width="50" height="50" relative="1" as="geometry">
            <mxPoint x="350" y="50" as="sourcePoint" />
            <mxPoint x="220" y="70" as="targetPoint" />
          </mxGeometry>
        </mxCell>
        <mxCell id="BDMdnq4w_vVdqYXEkBCO-28" value="" style="endArrow=classic;html=1;rounded=0;exitX=1;exitY=0.5;exitDx=0;exitDy=0;entryX=0;entryY=0.5;entryDx=0;entryDy=0;" parent="1" source="BDMdnq4w_vVdqYXEkBCO-15" target="BDMdnq4w_vVdqYXEkBCO-18" edge="1">
          <mxGeometry width="50" height="50" relative="1" as="geometry">
            <mxPoint x="-240" y="-950" as="sourcePoint" />
            <mxPoint x="-190" y="-1000" as="targetPoint" />
          </mxGeometry>
        </mxCell>
        <mxCell id="z-Buv-SzO47Vh-kXW9xh-12" value="" style="endArrow=classic;html=1;rounded=0;exitX=1;exitY=0.5;exitDx=0;exitDy=0;entryX=0;entryY=0.5;entryDx=0;entryDy=0;" parent="1" source="BDMdnq4w_vVdqYXEkBCO-15" target="z-Buv-SzO47Vh-kXW9xh-3" edge="1">
          <mxGeometry width="50" height="50" relative="1" as="geometry">
            <mxPoint x="-450" y="-790" as="sourcePoint" />
            <mxPoint x="-400" y="-940" as="targetPoint" />
          </mxGeometry>
        </mxCell>
        <mxCell id="z-Buv-SzO47Vh-kXW9xh-14" value="" style="group" parent="1" vertex="1" connectable="0">
          <mxGeometry x="-400" y="-900" width="350" height="160" as="geometry" />
        </mxCell>
        <mxCell id="z-Buv-SzO47Vh-kXW9xh-1" value="&lt;h1 style=&quot;margin-top: 0px;&quot;&gt;&lt;span style=&quot;font-size: 19px;&quot;&gt;To where?&lt;/span&gt;&lt;/h1&gt;" style="text;html=1;whiteSpace=wrap;overflow=hidden;rounded=0;align=center;" parent="z-Buv-SzO47Vh-kXW9xh-14" vertex="1">
          <mxGeometry x="105" width="140" height="40" as="geometry" />
        </mxCell>
        <mxCell id="BDMdnq4w_vVdqYXEkBCO-18" value="" style="rounded=1;whiteSpace=wrap;html=1;fillColor=none;" parent="z-Buv-SzO47Vh-kXW9xh-14" vertex="1">
          <mxGeometry y="40" width="350" height="120" as="geometry" />
        </mxCell>
        <mxCell id="BDMdnq4w_vVdqYXEkBCO-19" value="Start" style="ellipse;whiteSpace=wrap;html=1;aspect=fixed;" parent="z-Buv-SzO47Vh-kXW9xh-14" vertex="1">
          <mxGeometry x="20" y="100" width="40" height="40" as="geometry" />
        </mxCell>
        <mxCell id="BDMdnq4w_vVdqYXEkBCO-20" value="End" style="ellipse;whiteSpace=wrap;html=1;aspect=fixed;" parent="z-Buv-SzO47Vh-kXW9xh-14" vertex="1">
          <mxGeometry x="290" y="90" width="40" height="40" as="geometry" />
        </mxCell>
        <mxCell id="BDMdnq4w_vVdqYXEkBCO-21" value="1" style="ellipse;whiteSpace=wrap;html=1;aspect=fixed;" parent="z-Buv-SzO47Vh-kXW9xh-14" vertex="1">
          <mxGeometry x="200" y="50" width="40" height="40" as="geometry" />
        </mxCell>
        <mxCell id="BDMdnq4w_vVdqYXEkBCO-22" value="2" style="ellipse;whiteSpace=wrap;html=1;aspect=fixed;" parent="z-Buv-SzO47Vh-kXW9xh-14" vertex="1">
          <mxGeometry x="110" y="90" width="40" height="40" as="geometry" />
        </mxCell>
        <mxCell id="BDMdnq4w_vVdqYXEkBCO-23" value="" style="endArrow=classic;html=1;rounded=0;exitX=0.968;exitY=0.318;exitDx=0;exitDy=0;exitPerimeter=0;entryX=0.034;entryY=0.724;entryDx=0;entryDy=0;entryPerimeter=0;" parent="z-Buv-SzO47Vh-kXW9xh-14" source="BDMdnq4w_vVdqYXEkBCO-22" target="BDMdnq4w_vVdqYXEkBCO-21" edge="1">
          <mxGeometry width="50" height="50" relative="1" as="geometry">
            <mxPoint x="350" y="90" as="sourcePoint" />
            <mxPoint x="220" y="110" as="targetPoint" />
          </mxGeometry>
        </mxCell>
        <mxCell id="BDMdnq4w_vVdqYXEkBCO-24" value="3" style="ellipse;whiteSpace=wrap;html=1;aspect=fixed;fillColor=#d80073;fontColor=#ffffff;strokeColor=#A50040;" parent="z-Buv-SzO47Vh-kXW9xh-14" vertex="1">
          <mxGeometry x="200" y="110" width="40" height="40" as="geometry" />
        </mxCell>
        <mxCell id="BDMdnq4w_vVdqYXEkBCO-25" value="" style="endArrow=classic;html=1;rounded=0;exitX=0.969;exitY=0.681;exitDx=0;exitDy=0;exitPerimeter=0;entryX=0;entryY=0.5;entryDx=0;entryDy=0;fillColor=#d80073;strokeColor=#A50040;" parent="z-Buv-SzO47Vh-kXW9xh-14" source="BDMdnq4w_vVdqYXEkBCO-22" target="BDMdnq4w_vVdqYXEkBCO-24" edge="1">
          <mxGeometry width="50" height="50" relative="1" as="geometry">
            <mxPoint x="159" y="113" as="sourcePoint" />
            <mxPoint x="211" y="89" as="targetPoint" />
          </mxGeometry>
        </mxCell>
        <mxCell id="z-Buv-SzO47Vh-kXW9xh-30" value="" style="group" parent="1" vertex="1" connectable="0">
          <mxGeometry x="-400" y="-1080" width="350" height="160" as="geometry" />
        </mxCell>
        <mxCell id="z-Buv-SzO47Vh-kXW9xh-2" value="" style="group" parent="z-Buv-SzO47Vh-kXW9xh-30" vertex="1" connectable="0">
          <mxGeometry y="40" width="350" height="120" as="geometry" />
        </mxCell>
        <mxCell id="z-Buv-SzO47Vh-kXW9xh-3" value="" style="rounded=1;whiteSpace=wrap;html=1;fillColor=none;" parent="z-Buv-SzO47Vh-kXW9xh-2" vertex="1">
          <mxGeometry width="350" height="120" as="geometry" />
        </mxCell>
        <mxCell id="z-Buv-SzO47Vh-kXW9xh-4" value="Start" style="ellipse;whiteSpace=wrap;html=1;aspect=fixed;" parent="z-Buv-SzO47Vh-kXW9xh-2" vertex="1">
          <mxGeometry x="20" y="60" width="40" height="40" as="geometry" />
        </mxCell>
        <mxCell id="z-Buv-SzO47Vh-kXW9xh-5" value="End" style="ellipse;whiteSpace=wrap;html=1;aspect=fixed;" parent="z-Buv-SzO47Vh-kXW9xh-2" vertex="1">
          <mxGeometry x="290" y="50" width="40" height="40" as="geometry" />
        </mxCell>
        <mxCell id="z-Buv-SzO47Vh-kXW9xh-6" value="1" style="ellipse;whiteSpace=wrap;html=1;aspect=fixed;" parent="z-Buv-SzO47Vh-kXW9xh-2" vertex="1">
          <mxGeometry x="200" y="10" width="40" height="40" as="geometry" />
        </mxCell>
        <mxCell id="z-Buv-SzO47Vh-kXW9xh-7" value="2" style="ellipse;whiteSpace=wrap;html=1;aspect=fixed;" parent="z-Buv-SzO47Vh-kXW9xh-2" vertex="1">
          <mxGeometry x="110" y="50" width="40" height="40" as="geometry" />
        </mxCell>
        <mxCell id="z-Buv-SzO47Vh-kXW9xh-8" value="" style="endArrow=classic;html=1;rounded=0;exitX=0.968;exitY=0.318;exitDx=0;exitDy=0;exitPerimeter=0;entryX=0.034;entryY=0.724;entryDx=0;entryDy=0;entryPerimeter=0;" parent="z-Buv-SzO47Vh-kXW9xh-2" source="z-Buv-SzO47Vh-kXW9xh-7" target="z-Buv-SzO47Vh-kXW9xh-6" edge="1">
          <mxGeometry width="50" height="50" relative="1" as="geometry">
            <mxPoint x="350" y="50" as="sourcePoint" />
            <mxPoint x="220" y="70" as="targetPoint" />
          </mxGeometry>
        </mxCell>
        <mxCell id="z-Buv-SzO47Vh-kXW9xh-9" value="3" style="ellipse;whiteSpace=wrap;html=1;aspect=fixed;fillColor=#d80073;fontColor=#ffffff;strokeColor=#A50040;" parent="z-Buv-SzO47Vh-kXW9xh-2" vertex="1">
          <mxGeometry x="50" y="10" width="40" height="40" as="geometry" />
        </mxCell>
        <mxCell id="z-Buv-SzO47Vh-kXW9xh-10" value="" style="endArrow=classic;html=1;rounded=0;exitX=0.899;exitY=0.825;exitDx=0;exitDy=0;entryX=0.039;entryY=0.257;entryDx=0;entryDy=0;fillColor=#d80073;strokeColor=#A50040;entryPerimeter=0;exitPerimeter=0;" parent="z-Buv-SzO47Vh-kXW9xh-2" source="z-Buv-SzO47Vh-kXW9xh-9" target="z-Buv-SzO47Vh-kXW9xh-7" edge="1">
          <mxGeometry width="50" height="50" relative="1" as="geometry">
            <mxPoint x="159" y="73" as="sourcePoint" />
            <mxPoint x="211" y="49" as="targetPoint" />
          </mxGeometry>
        </mxCell>
        <mxCell id="z-Buv-SzO47Vh-kXW9xh-11" value="&lt;h1 style=&quot;margin-top: 0px;&quot;&gt;&lt;span style=&quot;font-size: 19px;&quot;&gt;From where?&lt;/span&gt;&lt;/h1&gt;" style="text;html=1;whiteSpace=wrap;overflow=hidden;rounded=0;align=center;" parent="z-Buv-SzO47Vh-kXW9xh-30" vertex="1">
          <mxGeometry x="105" width="140" height="40" as="geometry" />
        </mxCell>
        <mxCell id="z-Buv-SzO47Vh-kXW9xh-45" value="" style="endArrow=classic;html=1;rounded=0;exitX=0.995;exitY=0.505;exitDx=0;exitDy=0;entryX=0;entryY=0.5;entryDx=0;entryDy=0;exitPerimeter=0;" parent="1" source="BDMdnq4w_vVdqYXEkBCO-15" target="z-Buv-SzO47Vh-kXW9xh-33" edge="1">
          <mxGeometry width="50" height="50" relative="1" as="geometry">
            <mxPoint x="-450" y="-790" as="sourcePoint" />
            <mxPoint x="-390" y="-790" as="targetPoint" />
          </mxGeometry>
        </mxCell>
        <mxCell id="z-Buv-SzO47Vh-kXW9xh-46" value="" style="group" parent="1" vertex="1" connectable="0">
          <mxGeometry x="-400" y="-720" width="350" height="160" as="geometry" />
        </mxCell>
        <mxCell id="z-Buv-SzO47Vh-kXW9xh-32" value="" style="group" parent="z-Buv-SzO47Vh-kXW9xh-46" vertex="1" connectable="0">
          <mxGeometry y="40" width="350" height="120" as="geometry" />
        </mxCell>
        <mxCell id="z-Buv-SzO47Vh-kXW9xh-33" value="" style="rounded=1;whiteSpace=wrap;html=1;fillColor=none;" parent="z-Buv-SzO47Vh-kXW9xh-32" vertex="1">
          <mxGeometry width="350" height="120" as="geometry" />
        </mxCell>
        <mxCell id="z-Buv-SzO47Vh-kXW9xh-34" value="Start" style="ellipse;whiteSpace=wrap;html=1;aspect=fixed;" parent="z-Buv-SzO47Vh-kXW9xh-32" vertex="1">
          <mxGeometry x="20" y="60" width="40" height="40" as="geometry" />
        </mxCell>
        <mxCell id="z-Buv-SzO47Vh-kXW9xh-35" value="End" style="ellipse;whiteSpace=wrap;html=1;aspect=fixed;" parent="z-Buv-SzO47Vh-kXW9xh-32" vertex="1">
          <mxGeometry x="290" y="50" width="40" height="40" as="geometry" />
        </mxCell>
        <mxCell id="z-Buv-SzO47Vh-kXW9xh-36" value="1" style="ellipse;whiteSpace=wrap;html=1;aspect=fixed;" parent="z-Buv-SzO47Vh-kXW9xh-32" vertex="1">
          <mxGeometry x="200" y="10" width="40" height="40" as="geometry" />
        </mxCell>
        <mxCell id="z-Buv-SzO47Vh-kXW9xh-37" value="2" style="ellipse;whiteSpace=wrap;html=1;aspect=fixed;" parent="z-Buv-SzO47Vh-kXW9xh-32" vertex="1">
          <mxGeometry x="110" y="50" width="40" height="40" as="geometry" />
        </mxCell>
        <mxCell id="z-Buv-SzO47Vh-kXW9xh-38" value="" style="endArrow=classic;html=1;rounded=0;exitX=0.968;exitY=0.318;exitDx=0;exitDy=0;exitPerimeter=0;entryX=0.034;entryY=0.724;entryDx=0;entryDy=0;entryPerimeter=0;" parent="z-Buv-SzO47Vh-kXW9xh-32" source="z-Buv-SzO47Vh-kXW9xh-37" target="z-Buv-SzO47Vh-kXW9xh-36" edge="1">
          <mxGeometry width="50" height="50" relative="1" as="geometry">
            <mxPoint x="350" y="50" as="sourcePoint" />
            <mxPoint x="220" y="70" as="targetPoint" />
          </mxGeometry>
        </mxCell>
        <mxCell id="z-Buv-SzO47Vh-kXW9xh-39" value="3" style="ellipse;whiteSpace=wrap;html=1;aspect=fixed;fillColor=#d80073;fontColor=#ffffff;strokeColor=#A50040;" parent="z-Buv-SzO47Vh-kXW9xh-32" vertex="1">
          <mxGeometry x="200" y="70" width="40" height="40" as="geometry" />
        </mxCell>
        <mxCell id="z-Buv-SzO47Vh-kXW9xh-43" value="" style="endArrow=classic;html=1;rounded=0;exitX=0.965;exitY=0.718;exitDx=0;exitDy=0;exitPerimeter=0;entryX=0;entryY=0.5;entryDx=0;entryDy=0;fillColor=#d80073;strokeColor=#A50040;" parent="z-Buv-SzO47Vh-kXW9xh-32" source="z-Buv-SzO47Vh-kXW9xh-37" target="z-Buv-SzO47Vh-kXW9xh-39" edge="1">
          <mxGeometry width="50" height="50" relative="1" as="geometry">
            <mxPoint x="159" y="73" as="sourcePoint" />
            <mxPoint x="211" y="49" as="targetPoint" />
          </mxGeometry>
        </mxCell>
        <mxCell id="z-Buv-SzO47Vh-kXW9xh-44" value="" style="endArrow=classic;html=1;rounded=0;exitX=0.5;exitY=0;exitDx=0;exitDy=0;entryX=0.5;entryY=1;entryDx=0;entryDy=0;fillColor=#d80073;strokeColor=#A50040;" parent="z-Buv-SzO47Vh-kXW9xh-32" source="z-Buv-SzO47Vh-kXW9xh-39" target="z-Buv-SzO47Vh-kXW9xh-36" edge="1">
          <mxGeometry width="50" height="50" relative="1" as="geometry">
            <mxPoint x="159" y="89" as="sourcePoint" />
            <mxPoint x="210" y="100" as="targetPoint" />
          </mxGeometry>
        </mxCell>
        <mxCell id="z-Buv-SzO47Vh-kXW9xh-41" value="&lt;h1 style=&quot;margin-top: 0px;&quot;&gt;&lt;span style=&quot;font-size: 19px;&quot;&gt;Both&lt;/span&gt;&lt;/h1&gt;" style="text;html=1;whiteSpace=wrap;overflow=hidden;rounded=0;align=center;" parent="z-Buv-SzO47Vh-kXW9xh-46" vertex="1">
          <mxGeometry x="105" width="140" height="40" as="geometry" />
        </mxCell>
        <mxCell id="z-Buv-SzO47Vh-kXW9xh-51" style="edgeStyle=orthogonalEdgeStyle;rounded=0;orthogonalLoop=1;jettySize=auto;html=1;exitX=1;exitY=0.5;exitDx=0;exitDy=0;entryX=0;entryY=0.5;entryDx=0;entryDy=0;" parent="1" target="BDMdnq4w_vVdqYXEkBCO-15" edge="1">
          <mxGeometry relative="1" as="geometry">
            <Array as="points">
              <mxPoint x="80" y="-800" />
              <mxPoint x="80" y="-530" />
              <mxPoint x="-830" y="-530" />
              <mxPoint x="-830" y="-800" />
            </Array>
            <mxPoint x="60" y="-800" as="sourcePoint" />
          </mxGeometry>
        </mxCell>
        <mxCell id="eqXS0zuDmMrwy35jhYze-1" value="" style="endArrow=none;html=1;rounded=0;exitX=1;exitY=0.5;exitDx=0;exitDy=0;" edge="1" parent="1" source="z-Buv-SzO47Vh-kXW9xh-3">
          <mxGeometry width="50" height="50" relative="1" as="geometry">
            <mxPoint x="190" y="-1040" as="sourcePoint" />
            <mxPoint x="60" y="-800" as="targetPoint" />
          </mxGeometry>
        </mxCell>
        <mxCell id="eqXS0zuDmMrwy35jhYze-2" value="" style="endArrow=none;html=1;rounded=0;exitX=1;exitY=0.5;exitDx=0;exitDy=0;" edge="1" parent="1" source="BDMdnq4w_vVdqYXEkBCO-18">
          <mxGeometry width="50" height="50" relative="1" as="geometry">
            <mxPoint x="40" y="-970" as="sourcePoint" />
            <mxPoint x="60" y="-800" as="targetPoint" />
          </mxGeometry>
        </mxCell>
        <mxCell id="eqXS0zuDmMrwy35jhYze-3" value="" style="endArrow=none;html=1;rounded=0;exitX=1;exitY=0.5;exitDx=0;exitDy=0;" edge="1" parent="1" source="z-Buv-SzO47Vh-kXW9xh-33">
          <mxGeometry width="50" height="50" relative="1" as="geometry">
            <mxPoint x="-40" y="-970" as="sourcePoint" />
            <mxPoint x="60" y="-800" as="targetPoint" />
          </mxGeometry>
        </mxCell>
      </root>
    </mxGraphModel>
  </diagram>
</mxfile>
